{"title":"The Way Way Back 2013 HDRip x264 AC3-UNiQUE","uid":9018938,"size":1501338886,"categoryP":"video","categoryS":"movies","magnet":"?xt=urn:btih:f60c98ea36976ccd61cc352aeb06081dbfe6667d&amp;dn=The+Way+Way+Back+2013+HDRip+x264+AC3-UNiQUE&amp;tr=udp%3A%2F%2Ftracker.openbittorrent.com%3A80&amp;tr=udp%3A%2F%2Fopen.demonii.com%3A1337&amp;tr=udp%3A%2F%2Ftracker.coppersurfer.tk%3A6969&amp;tr=udp%3A%2F%2Fexodus.desync.com%3A6969","seeders":3,"leechers":0,"uploader":"HeroMaster","files":-1,"time":1381254197,"description":"The Way Way Back 2013 HDRip x264 AC3-UNiQUE\n\nSource own 1080p\n\nGeneral\nFormat: Matroska\nFormat version: Version 2\nFile size: 1.40 GiB\nDuration: 1h 44mn\nOverall bit rate mode: Variable\nOverall bit rate: 1 917 Kbps\nEncoded date: UTC 2013-10-08 08:33:16\n\nVideo\nID: 1\nFormat: AVC\nFormat/Info: Advanced Video Codec\nFormat profile: &lt;a class=&quot;__cf_email__&quot; href=&quot;/cdn-cgi/l/email-protection&quot; data-cfemail=&quot;b4fcddd3dcf4f8809a85&quot;&gt;[email&amp;#160;protected]&lt;/a&gt;&lt;script cf-hash='f9e31' type=&quot;text/javascript&quot;&gt;\n/* &lt;![CDATA[ */!function(){try{var t=&quot;currentScript&quot;in document?document.currentScript:function(){for(var t=document.getElementsByTagName(&quot;script&quot;),e=t.length;e--;)if(t[e].getAttribute(&quot;cf-hash&quot;))return t[e]}();if(t&amp;&amp;t.previousSibling){var e,r,n,i,c=t.previousSibling,a=c.getAttribute(&quot;data-cfemail&quot;);if(a){for(e=&quot;&quot;,r=parseInt(a.substr(0,2),16),n=2;a.length-n;n+=2)i=parseInt(a.substr(n,2),16)^r,e+=String.fromCharCode(i);e=document.createTextNode(e),c.parentNode.replaceChild(e,c)}}}catch(u){}}();/* ]]&gt; */&lt;/script&gt;\nFormat settings, CABAC: Yes\nFormat settings, ReFrames: 3 frames\nCodec ID: V_MPEG4/ISO/AVC\nDuration: 1h 44mn\nBit rate mode: Variable\nBit rate: 1 534 Kbps\nMaximum bit rate: 40.0 Mbps\nWidth: 720 pixels\nHeight: 384 pixels\nDisplay aspect ratio: 1.85:1\nFrame rate: 23.976 fps\nColor space: YUV\nChroma subsampling: 4:2:0\nBit depth: 8 bits\nScan type: Progressive\nBits/(Pixel*Frame): 0.231\nStream size: 1.09 GiB (78%)\nWriting library: x264 core 138 r2358 9e941d1\nDefault: Yes\nForced: No\n\nAudio\nID: 2\nFormat: AC-3\nFormat/Info: Audio Coding 3\nMode extension: CM (complete main)\nFormat settings, Endianness: Big\nCodec ID: A_AC3\nDuration: 1h 44mn\nBit rate mode: Constant\nBit rate: 384 Kbps\nChannel(s): 6 channels\nChannel positions: Front: L C R, Side: L R, LFE\nSampling rate: 48.0 KHz\nBit depth: 16 bits\nCompression mode: Lossy\nStream size: 287 MiB (20%)\nLanguage: English\nDefault: Yes\nForced: No\n\nText\nID: 3\nFormat: UTF-8\nCodec ID: S_TEXT/UTF8\nCodec ID/Info: UTF-8 Plain Text\nLanguage: English\nDefault: No\nForced: No \n\nIMDB: http://www.imdb.com/title/tt1727388/\n\n\nPlot: Shy 14-year-old Duncan goes on summer vacation with his mother, her overbearing boyfriend, and her boyfriend's daughter. Having a rough time \nfitting in, Duncan finds an unexpected friend in Owen, manager of the Water \nWizz water park. \n\n\nPoster:\n\n &lt;a href=&quot;\nhttp://i.imgur.com/ZBiZQbi.jpg&quot; rel=&quot;nofollow&quot; target=&quot;_NEW&quot;&gt;\nhttp://i.imgur.com/ZBiZQbi.jpg&lt;/a&gt;\n\n\nScreenshots:\n\n &lt;a href=&quot;\nhttp://i.imgur.com/A0YkLRV.jpg&quot; rel=&quot;nofollow&quot; target=&quot;_NEW&quot;&gt;\nhttp://i.imgur.com/A0YkLRV.jpg&lt;/a&gt;\n\n\nSEED AND ENJOY!","torrent":{"xt":"urn:btih:f60c98ea36976ccd61cc352aeb06081dbfe6667d","amp;dn":"The+Way+Way+Back+2013+HDRip+x264+AC3-UNiQUE","amp;tr":["udp%3A%2F%2Ftracker.openbittorrent.com%3A80","udp%3A%2F%2Fopen.demonii.com%3A1337","udp%3A%2F%2Ftracker.coppersurfer.tk%3A6969","udp%3A%2F%2Fexodus.desync.com%3A6969"],"infoHash":"f60c98ea36976ccd61cc352aeb06081dbfe6667d","infoHashBuffer":{"type":"Buffer","data":[246,12,152,234,54,151,108,205,97,204,53,42,235,6,8,29,191,230,102,125]},"announce":[],"urlList":[]}}